HIERARCHY
ROOT hip
{
	OFFSET 0.000000 0.000000 0.000000 
	CHANNELS 6 Xposition Yposition Zposition Xrotation Zrotation Yrotation
	JOINT abdomen
	{
		OFFSET 0.000000 3.402643 0.000000 
		CHANNELS 3 Xrotation Zrotation Yrotation
		JOINT chest
		{
			OFFSET 0.000000 8.438565 -0.680529 
			CHANNELS 3 Xrotation Zrotation Yrotation
			JOINT neck
			{
				OFFSET 0.000000 10.207942 -0.272212 
				CHANNELS 3 Xrotation Zrotation Yrotation
				JOINT head
				{
					OFFSET 0.000000 3.130431 0.000000 
					CHANNELS 3 Xrotation Zrotation Yrotation
					End Site
					{
						OFFSET 0.000000 3.130435 0.000000 
					}
				}
			}
			JOINT lCollar
			{
				OFFSET 3.470700 6.669187 -0.816635 
				CHANNELS 3 Yrotation Zrotation Xrotation
				JOINT lShldr
				{
					OFFSET 3.198488 0.000000 0.000000 
					CHANNELS 3 Zrotation Yrotation Xrotation
					JOINT lForeArm
					{
						OFFSET 10.139888 0.000000 0.000000 
						CHANNELS 3 Yrotation Zrotation Xrotation
						JOINT lHand
						{
							OFFSET 8.370511 0.000000 0.000000 
							CHANNELS 3 Zrotation Yrotation Xrotation
							End Site
							{
								OFFSET 4.083176 0.000000 0.000000 
							}
						}
					}
				}
			}
			JOINT rCollar
			{
				OFFSET -3.470700 6.669187 -0.816635 
				CHANNELS 3 Yrotation Zrotation Xrotation
				JOINT rShldr
				{
					OFFSET -3.198488 0.000000 0.000000 
					CHANNELS 3 Zrotation Yrotation Xrotation
					JOINT rForeArm
					{
						OFFSET -10.139888 0.000000 0.000000 
						CHANNELS 3 Yrotation Zrotation Xrotation
						JOINT rHand
						{
							OFFSET -8.370511 0.000000 0.000000 
							CHANNELS 3 Zrotation Yrotation Xrotation
							End Site
							{
								OFFSET -4.083176 0.000000 0.000000 
							}
						}
					}
				}
			}
		}
	}
	JOINT lThigh
	{
		OFFSET 5.308129 -1.633274 1.361059 
		CHANNELS 3 Xrotation Zrotation Yrotation
		JOINT lShin
		{
			OFFSET -2.041588 -20.007561 0.000000 
			CHANNELS 3 Xrotation Zrotation Yrotation
			JOINT lFoot
			{
				OFFSET 0.000000 -19.190928 -1.224953 
				CHANNELS 3 Xrotation Yrotation Zrotation
				End Site
				{
					OFFSET 0.000000 -2.449906 4.627600 
				}
			}
		}
	}
	JOINT rThigh
	{
		OFFSET -5.308129 -1.633274 1.361059 
		CHANNELS 3 Xrotation Zrotation Yrotation
		JOINT rShin
		{
			OFFSET 2.041588 -20.007561 0.000000 
			CHANNELS 3 Xrotation Zrotation Yrotation
			JOINT rFoot
			{
				OFFSET 0.000000 -19.190928 -1.224953 
				CHANNELS 3 Xrotation Yrotation Zrotation
				End Site
				{
					OFFSET 0.000000 -2.449906 4.627600 
				}
			}
		}
	}
}
MOTION
Frames: 8
Frame Time: 0.016667
10.513865 42.063118 17.431614 -5.208228 -5.663333 0.922161 5.019107 -0.166015 0.146484 13.116584 5.478189 0.628671 23.984755 -2.743507 -1.232330 -33.459118 5.320568 1.451762 5.299595 -3.313726 0.282654 -17.583927 0.076905 -73.019562 -13.896749 -2.456437 -23.164934 1.644208 -3.403038 -3.510995 -0.839964 -0.351276 -0.019529 32.482502 -7.125125 -87.444038 10.006076 1.330019 -0.654255 -1.662539 3.382353 -3.511080 -35.735878 34.749622 2.333094 98.399292 -17.889635 3.176939 -12.599873 1.941065 -3.859317 -42.359875 -37.281971 -2.601192 78.748138 22.206470 2.376756 4.618007 2.848010 -7.117489 
10.219399 41.195805 17.414543 -5.252122 -5.299887 1.882316 5.019107 -0.166015 0.146484 13.552549 4.531199 -0.274126 23.780420 -1.982188 -0.879731 -33.465473 5.291646 1.285552 5.286498 -2.945385 0.253499 -18.161062 -0.504075 -73.692383 -13.921840 -2.454419 -23.123919 1.644208 -3.403038 -3.510995 -0.927644 0.527502 -0.009854 33.801811 -6.821531 -87.280525 10.131836 1.338650 -0.981015 -1.662539 3.382353 -3.511080 -38.377113 34.666340 2.338357 102.369980 -16.746624 2.203644 -13.372881 1.914429 -3.836990 -43.003551 -37.046982 -2.607085 88.329536 21.884792 6.284806 0.831242 2.869324 -7.125632 
9.981459 40.085415 17.363554 -5.251365 -4.556881 2.301629 5.019107 -0.166015 0.146484 14.367455 3.271277 -0.645153 23.179270 -1.415934 -0.615529 -33.567993 5.194463 1.039746 5.245877 -2.810626 0.234072 -18.813860 -1.528582 -73.887222 -13.955034 -2.453353 -23.063059 1.644208 -3.403038 -3.510995 -1.093978 1.337704 0.009761 35.163303 -6.212231 -87.310677 10.214270 1.348667 -1.134508 -1.662539 3.382353 -3.511080 -40.442139 34.339561 2.294614 105.525543 -16.054024 0.255190 -13.157370 1.933590 -3.838881 -43.881542 -36.401752 -2.511960 95.103722 20.809574 8.103851 -2.161636 2.856043 -7.115525 
9.743646 38.974609 17.312433 -5.250602 -3.823791 2.730262 5.019107 -0.166015 0.146484 15.178655 2.021160 -1.025786 22.583483 -0.849592 -0.361433 -33.670410 5.106946 0.785103 5.196076 -2.684757 0.224358 -19.460766 -2.550894 -74.058548 -13.987844 -2.454718 -22.993156 1.644208 -3.403038 -3.510995 -1.261230 2.147578 0.039026 36.523193 -5.604490 -87.326950 10.287065 1.358471 -1.288192 -1.662539 3.382353 -3.511080 -42.513985 34.038425 2.251976 108.649673 -15.244558 -1.624839 -12.942286 1.938009 -3.837558 -44.739185 -35.755974 -2.442429 101.795822 19.540901 9.768750 -5.162513 2.834584 -7.131102 
9.562357 37.671608 17.199127 -5.189317 -3.014309 2.669514 5.019107 -0.166015 0.146484 16.380405 0.898294 -1.025418 21.500216 -0.937480 -0.371204 -33.695812 5.390122 0.785134 4.982771 -2.948418 0.234187 -20.099590 -3.902313 -73.758484 -14.038102 -2.450997 -22.911573 1.644208 -3.403038 -3.510995 -1.222968 2.655209 0.048765 37.870632 -4.732316 -87.646179 10.221852 1.342812 -1.057610 -1.662539 3.382353 -3.511080 -44.262646 33.775410 2.228727 111.058586 -14.592643 -2.945240 -12.453564 1.941764 -3.837843 -45.985325 -34.745308 -2.361566 106.058266 17.957811 9.007582 -8.444986 2.825239 -7.120576 
9.381186 36.368298 17.085707 -5.120430 -2.214501 2.609247 5.019107 -0.166015 0.146484 17.582260 -0.224571 -1.054718 20.407448 -1.035132 -0.390738 -33.722050 5.683076 0.775429 4.770146 -3.221104 0.253727 -20.744787 -5.246623 -73.439316 -14.076082 -2.439796 -22.840372 1.644208 -3.403038 -3.510995 -1.184347 3.172820 0.048743 39.217716 -3.859327 -87.940948 10.157073 1.336415 -0.827167 -1.662539 3.382353 -3.511080 -46.029083 33.520802 2.210398 113.463905 -13.851538 -4.232052 -11.975612 1.908858 -3.845744 -47.199352 -33.724773 -2.288002 110.321564 16.435446 8.116582 -11.736332 2.818488 -7.119935 
9.250887 34.929340 16.921415 -4.934342 -1.414689 2.481159 5.019107 -0.166015 0.146484 19.024969 -1.113082 -1.084349 18.903133 -1.660075 -0.566734 -33.698017 6.278148 1.101073 4.224488 -3.634392 0.244228 -21.318317 -6.867373 -72.665306 -14.108967 -2.441440 -22.770086 1.644208 -3.403038 -3.510995 -0.851895 3.349029 0.038991 40.498158 -2.854822 -88.076973 9.990438 1.312212 -0.423515 -1.662539 3.382353 -3.511080 -48.065277 33.221886 2.174667 115.927650 -12.882498 -4.630578 -12.199297 1.942022 -3.849782 -49.265675 -32.928391 -2.197395 113.662376 14.666774 5.930422 -15.731415 2.823213 -7.101607 
9.120626 33.490204 16.757048 -4.752229 -0.624473 2.353589 5.019107 -0.166015 0.146484 20.460054 -2.011318 -1.143588 17.392365 -2.304504 -0.723250 -33.666931 6.882653 1.426874 3.678691 -4.047496 0.234689 -21.911333 -8.486113 -71.875969 -14.147430 -2.428035 -22.708368 1.644208 -3.403038 -3.510995 -0.508414 3.525304 0.009747 41.773575 -1.854965 -88.186874 9.814672 1.297164 -0.009841 -1.662539 3.382353 -3.511080 -50.100101 32.905067 2.164201 118.402939 -11.879251 -4.951256 -12.462895 1.946992 -3.856973 -51.274734 -32.086906 -2.133880 117.035835 13.065291 3.658045 -19.725597 2.810978 -7.103612 
